<mxfile host="app.diagrams.net" modified="2021-10-12T09:06:54.727Z" agent="5.0 (X11)" etag="4whbpuMS8n3Br9nkuokR" version="15.5.0" type="github">
  <diagram id="T2RNOw0BPEMfBJu6Xnur" name="Page-1">
    <mxGraphModel dx="1021" dy="1429" grid="1" gridSize="10" guides="1" tooltips="1" connect="1" arrows="1" fold="1" page="1" pageScale="1" pageWidth="1100" pageHeight="850" math="0" shadow="0">
      <root>
        <mxCell id="0" />
        <mxCell id="1" parent="0" />
        <mxCell id="ttAEP8Czc7_XfVFo0G7g-49" value="Desk Information" style="edgeStyle=orthogonalEdgeStyle;rounded=0;orthogonalLoop=1;jettySize=auto;html=1;entryX=0;entryY=0.25;entryDx=0;entryDy=0;" edge="1" parent="1" source="ttAEP8Czc7_XfVFo0G7g-16" target="ttAEP8Czc7_XfVFo0G7g-46">
          <mxGeometry x="-0.0621" y="20" relative="1" as="geometry">
            <mxPoint as="offset" />
          </mxGeometry>
        </mxCell>
        <mxCell id="ttAEP8Czc7_XfVFo0G7g-54" value="Barber Information" style="edgeStyle=orthogonalEdgeStyle;rounded=0;orthogonalLoop=1;jettySize=auto;html=1;entryX=0;entryY=0.5;entryDx=0;entryDy=0;exitX=0.75;exitY=1;exitDx=0;exitDy=0;" edge="1" parent="1" source="ttAEP8Czc7_XfVFo0G7g-16" target="ttAEP8Czc7_XfVFo0G7g-53">
          <mxGeometry relative="1" as="geometry" />
        </mxCell>
        <mxCell id="ttAEP8Czc7_XfVFo0G7g-16" value="Owner" style="html=1;dashed=0;whitespace=wrap;" vertex="1" parent="1">
          <mxGeometry x="70" y="140" width="100" height="50" as="geometry" />
        </mxCell>
        <mxCell id="ttAEP8Czc7_XfVFo0G7g-17" value="Registration Form" style="endArrow=classic;html=1;rounded=0;edgeStyle=orthogonalEdgeStyle;entryX=0;entryY=0.5;entryDx=0;entryDy=0;exitX=0.75;exitY=0;exitDx=0;exitDy=0;" edge="1" parent="1" source="ttAEP8Czc7_XfVFo0G7g-16" target="ttAEP8Czc7_XfVFo0G7g-19">
          <mxGeometry width="50" height="50" relative="1" as="geometry">
            <mxPoint x="110" y="340" as="sourcePoint" />
            <mxPoint x="270" y="297" as="targetPoint" />
          </mxGeometry>
        </mxCell>
        <mxCell id="ttAEP8Czc7_XfVFo0G7g-29" value="Owner Account Information" style="endArrow=classic;html=1;rounded=0;edgeStyle=orthogonalEdgeStyle;exitX=1;exitY=0.75;exitDx=0;exitDy=0;entryX=0.124;entryY=0.022;entryDx=0;entryDy=0;entryPerimeter=0;" edge="1" parent="1" source="ttAEP8Czc7_XfVFo0G7g-19" target="ttAEP8Czc7_XfVFo0G7g-36">
          <mxGeometry width="50" height="50" relative="1" as="geometry">
            <mxPoint x="360" y="220" as="sourcePoint" />
            <mxPoint x="480" y="215" as="targetPoint" />
          </mxGeometry>
        </mxCell>
        <mxCell id="ttAEP8Czc7_XfVFo0G7g-35" value="" style="group" vertex="1" connectable="0" parent="1">
          <mxGeometry x="500" y="130" width="100" height="30" as="geometry" />
        </mxCell>
        <mxCell id="ttAEP8Czc7_XfVFo0G7g-36" value="A" style="html=1;dashed=0;whitespace=wrap;shape=mxgraph.dfd.dataStoreID;align=left;spacingLeft=3;points=[[0,0],[0.5,0],[1,0],[0,0.5],[1,0.5],[0,1],[0.5,1],[1,1]];sketch=0;" vertex="1" parent="ttAEP8Czc7_XfVFo0G7g-35">
          <mxGeometry width="100" height="30" as="geometry" />
        </mxCell>
        <mxCell id="ttAEP8Czc7_XfVFo0G7g-37" value="tblUsers" style="text;html=1;strokeColor=none;fillColor=none;align=center;verticalAlign=middle;whiteSpace=wrap;rounded=0;sketch=0;" vertex="1" parent="ttAEP8Czc7_XfVFo0G7g-35">
          <mxGeometry x="30" width="70" height="30" as="geometry" />
        </mxCell>
        <mxCell id="ttAEP8Czc7_XfVFo0G7g-41" value="" style="group" vertex="1" connectable="0" parent="1">
          <mxGeometry x="490" y="-20" width="100" height="30" as="geometry" />
        </mxCell>
        <mxCell id="ttAEP8Czc7_XfVFo0G7g-42" value="B" style="html=1;dashed=0;whitespace=wrap;shape=mxgraph.dfd.dataStoreID;align=left;spacingLeft=3;points=[[0,0],[0.5,0],[1,0],[0,0.5],[1,0.5],[0,1],[0.5,1],[1,1]];sketch=0;" vertex="1" parent="ttAEP8Czc7_XfVFo0G7g-41">
          <mxGeometry width="100" height="30" as="geometry" />
        </mxCell>
        <mxCell id="ttAEP8Czc7_XfVFo0G7g-43" value="tblShops" style="text;html=1;strokeColor=none;fillColor=none;align=center;verticalAlign=middle;whiteSpace=wrap;rounded=0;sketch=0;" vertex="1" parent="ttAEP8Czc7_XfVFo0G7g-41">
          <mxGeometry x="30" width="70" height="30" as="geometry" />
        </mxCell>
        <mxCell id="ttAEP8Czc7_XfVFo0G7g-44" value="Shop Information" style="endArrow=classic;html=1;rounded=0;edgeStyle=orthogonalEdgeStyle;exitX=0.996;exitY=0.176;exitDx=0;exitDy=0;exitPerimeter=0;entryX=0.11;entryY=1.079;entryDx=0;entryDy=0;entryPerimeter=0;" edge="1" parent="1" source="ttAEP8Czc7_XfVFo0G7g-18" target="ttAEP8Czc7_XfVFo0G7g-42">
          <mxGeometry width="50" height="50" relative="1" as="geometry">
            <mxPoint x="380" y="290" as="sourcePoint" />
            <mxPoint x="430" y="240" as="targetPoint" />
          </mxGeometry>
        </mxCell>
        <mxCell id="ttAEP8Czc7_XfVFo0G7g-45" value="2.0" style="swimlane;fontStyle=0;childLayout=stackLayout;horizontal=1;startSize=20;fillColor=#ffffff;horizontalStack=0;resizeParent=1;resizeParentMax=0;resizeLast=0;collapsible=0;marginBottom=0;swimlaneFillColor=#ffffff;" vertex="1" parent="1">
          <mxGeometry x="260" y="130" width="100" height="80" as="geometry" />
        </mxCell>
        <mxCell id="ttAEP8Czc7_XfVFo0G7g-46" value="Add Desk" style="rounded=0;whiteSpace=wrap;html=1;" vertex="1" parent="ttAEP8Czc7_XfVFo0G7g-45">
          <mxGeometry y="20" width="100" height="60" as="geometry" />
        </mxCell>
        <mxCell id="ttAEP8Czc7_XfVFo0G7g-50" value="Desk Account Information" style="edgeStyle=orthogonalEdgeStyle;rounded=0;orthogonalLoop=1;jettySize=auto;html=1;entryX=0.1;entryY=1;entryDx=0;entryDy=0;entryPerimeter=0;" edge="1" parent="1" source="ttAEP8Czc7_XfVFo0G7g-46" target="ttAEP8Czc7_XfVFo0G7g-36">
          <mxGeometry relative="1" as="geometry" />
        </mxCell>
        <mxCell id="ttAEP8Czc7_XfVFo0G7g-51" value="" style="group" vertex="1" connectable="0" parent="1">
          <mxGeometry x="260" y="30" width="100" height="80" as="geometry" />
        </mxCell>
        <mxCell id="ttAEP8Czc7_XfVFo0G7g-18" value="1.0" style="swimlane;fontStyle=0;childLayout=stackLayout;horizontal=1;startSize=20;fillColor=#ffffff;horizontalStack=0;resizeParent=1;resizeParentMax=0;resizeLast=0;collapsible=0;marginBottom=0;swimlaneFillColor=#ffffff;" vertex="1" parent="ttAEP8Czc7_XfVFo0G7g-51">
          <mxGeometry width="100" height="80" as="geometry" />
        </mxCell>
        <mxCell id="ttAEP8Czc7_XfVFo0G7g-19" value="Register Store" style="rounded=0;whiteSpace=wrap;html=1;" vertex="1" parent="ttAEP8Czc7_XfVFo0G7g-51">
          <mxGeometry y="20" width="100" height="60" as="geometry" />
        </mxCell>
        <mxCell id="ttAEP8Czc7_XfVFo0G7g-52" value="3.0" style="swimlane;fontStyle=0;childLayout=stackLayout;horizontal=1;startSize=20;fillColor=#ffffff;horizontalStack=0;resizeParent=1;resizeParentMax=0;resizeLast=0;collapsible=0;marginBottom=0;swimlaneFillColor=#ffffff;" vertex="1" parent="1">
          <mxGeometry x="260" y="230" width="100" height="80" as="geometry" />
        </mxCell>
        <mxCell id="ttAEP8Czc7_XfVFo0G7g-53" value="Add Barber" style="rounded=0;whiteSpace=wrap;html=1;" vertex="1" parent="ttAEP8Czc7_XfVFo0G7g-52">
          <mxGeometry y="20" width="100" height="60" as="geometry" />
        </mxCell>
        <mxCell id="ttAEP8Czc7_XfVFo0G7g-55" value="Barber Account Information" style="edgeStyle=orthogonalEdgeStyle;rounded=0;orthogonalLoop=1;jettySize=auto;html=1;entryX=0.25;entryY=1;entryDx=0;entryDy=0;" edge="1" parent="1" source="ttAEP8Czc7_XfVFo0G7g-53" target="ttAEP8Czc7_XfVFo0G7g-37">
          <mxGeometry relative="1" as="geometry" />
        </mxCell>
      </root>
    </mxGraphModel>
  </diagram>
</mxfile>
